<svg width="40" height="40" viewBox="0 0 40 40" fill="none" xmlns="http://www.w3.org/2000/svg">
<path d="M33.3883 13.3282C33.41 13.6199 33.41 13.9099 33.41 14.1999C33.41 23.0749 26.655 33.3016 14.31 33.3016C10.5067 33.3016 6.97333 32.1999 4 30.2866C4.54 30.3482 5.06 30.3699 5.62167 30.3699C8.64332 30.3772 11.5794 29.3668 13.9567 27.5016C12.5557 27.4762 11.1976 27.014 10.0721 26.1795C8.9465 25.3449 8.10964 24.1797 7.67833 22.8466C8.09333 22.9082 8.51 22.9499 8.94667 22.9499C9.54833 22.9499 10.1533 22.8666 10.715 22.7216C9.1946 22.4146 7.82746 21.5905 6.84603 20.3894C5.86461 19.1883 5.32949 17.6843 5.33167 16.1332V16.0499C6.22667 16.5482 7.265 16.8599 8.365 16.9016C7.44348 16.2892 6.68787 15.4583 6.16557 14.4829C5.64327 13.5075 5.37052 12.418 5.37167 11.3116C5.37167 10.0649 5.70333 8.92158 6.285 7.92491C7.9719 9.99994 10.0758 11.6975 12.4606 12.9077C14.8453 14.1178 17.4576 14.8136 20.1283 14.9499C20.025 14.4499 19.9617 13.9316 19.9617 13.4116C19.9612 12.5298 20.1346 11.6567 20.4718 10.842C20.809 10.0273 21.3035 9.28703 21.927 8.66356C22.5505 8.04008 23.2907 7.54559 24.1054 7.20837C24.9201 6.87115 25.7933 6.6978 26.675 6.69824C28.6083 6.69824 30.3533 7.50824 31.58 8.81824C33.083 8.5276 34.5242 7.97895 35.84 7.19658C35.339 8.74794 34.2896 10.0634 32.8883 10.8966C34.2213 10.7445 35.5241 10.394 36.7533 9.85658C35.8352 11.1951 34.6975 12.3688 33.3883 13.3282Z" fill="#D53D5C"/>
</svg>
