<svg width="55" height="54" viewBox="0 0 55 54" fill="none" xmlns="http://www.w3.org/2000/svg">
<g clip-path="url(#clip0_7_1322)">
<path d="M27.5 -1.18021e-06C34.6608 -1.49322e-06 41.5284 2.84463 46.5919 7.90811C51.6554 12.9716 54.5 19.8392 54.5 27C54.5 34.1608 51.6554 41.0284 46.5919 46.0919C41.5284 51.1554 34.6608 54 27.5 54C20.3392 54 13.4716 51.1554 8.40812 46.0919C3.34463 41.0284 0.499999 34.1608 0.499999 27C0.499999 19.8392 3.34463 12.9716 8.40812 7.90812C13.4716 2.84463 20.3392 -8.67197e-07 27.5 -1.18021e-06ZM15.6875 25.3125C15.2399 25.3125 14.8107 25.4903 14.4943 25.8068C14.1778 26.1232 14 26.5524 14 27C14 27.4476 14.1778 27.8768 14.4943 28.1932C14.8107 28.5097 15.2399 28.6875 15.6875 28.6875L35.2389 28.6875L27.9928 35.9302C27.6759 36.2471 27.4979 36.6769 27.4979 37.125C27.4979 37.5731 27.6759 38.0029 27.9928 38.3197C28.3096 38.6366 28.7394 38.8146 29.1875 38.8146C29.6356 38.8146 30.0654 38.6366 30.3823 38.3197L40.5073 28.1947C40.6644 28.038 40.7891 27.8518 40.8742 27.6468C40.9592 27.4417 41.003 27.222 41.003 27C41.003 26.778 40.9592 26.5583 40.8742 26.3532C40.7891 26.1482 40.6644 25.962 40.5073 25.8052L30.3823 15.6802C30.0654 15.3634 29.6356 15.1854 29.1875 15.1854C28.7394 15.1854 28.3096 15.3634 27.9928 15.6802C27.6759 15.9971 27.4979 16.4269 27.4979 16.875C27.4979 17.3231 27.6759 17.7529 27.9928 18.0698L35.2389 25.3125L15.6875 25.3125Z" fill="#F5FBF2"/>
</g>
<defs>
<clipPath id="clip0_7_1322">
<rect width="54" height="54" fill="white" transform="translate(0.5 54) rotate(-90)"/>
</clipPath>
</defs>
</svg>
